#!OML:ASF H:\BreakDance\Project 1\Capture day 1\Session 1\Male.ASF
:FULLY-SPECIFIED
:DEGREES
1481
root -4.8683 16.0045 0.854872 -116.215 -86.4602 116.933
lowerback -3.12004 1.19013 -0.44163
upperback 3.39218 1.69643 -2.88031
thorax 5.34026 0.861592 -2.61301
lowerneck -3.85395 -1.72513 -1.96189
upperneck 5.15309 -2.28683 1.57164
head 2.33157 -1.13714 0.761955
rclavicle 1.87852e-014 -2.8625e-014
rhumerus -36.3587 2.7907 -91.1152
rradius 73.0863
rwrist 20.0201
rhand -38.3704 -28.5462
rfingers 7.12502
rthumb -11.3965 661.784
lclavicle 1.87852e-014 -2.8625e-014
lhumerus -30.941 -10.2861 87.03
lradius 67.8706
lwrist -19.0096
lhand -38.3743 -754.359
lfingers 7.12502
lthumb -11.4003 -4.68867
rfemur -18.8097 3.61694 8.28775
rtibia 47.5302
rfoot -25.2747 -17.3963
rtoes -13.7755
lfemur -12.1785 -1.61328 -14.3463
ltibia 39.5147
lfoot -32.4307 17.2511
ltoes -28.9712
1482
root -4.85953 16.0066 0.862164 -117.841 -86.5471 118.516
lowerback -3.25053 1.17701 -0.228508
upperback 3.39788 1.67178 -2.90188
thorax 5.42708 0.858975 -2.75529
lowerneck -3.72678 -1.63689 -1.98251
upperneck 5.59131 -2.17615 1.53178
head 2.45114 -1.08634 0.756997
rclavicle 1.39149e-015 -5.1684e-015
rhumerus -35.8708 2.97279 -91.1644
rradius 72.856
rwrist 20.0865
rhand -38.2201 -28.7823
rfingers 7.12502
rthumb -11.2515 661.539
lclavicle 1.39149e-015 -5.1684e-015
lhumerus -30.5172 -10.3938 86.7412
lradius 67.8373
lwrist -19.334
lhand -38.2232 -754.118
lfingers 7.12502
lthumb -11.2545 -4.43956
rfemur -18.7419 3.65102 8.39006
rtibia 47.4244
rfoot -25.1617 -17.4045
rtoes -14.2734
lfemur -12.1668 -1.72693 -14.2708
ltibia 39.588
lfoot -32.5153 17.3648
ltoes -28.9591
1483
root -4.85231 16.0074 0.870095 -118.843 -86.5783 119.495
lowerback -3.43327 1.17314 -0.0665425
upperback 3.40495 1.66343 -2.94363
thorax 5.54523 0.863017 -2.88799
lowerneck -3.6833 -1.54743 -1.99154
upperneck 6.11409 -2.06498 1.49657
head 2.61502 -1.03535 0.75121
rclavicle -2.5842e-015 -3.18055e-014
rhumerus -35.3828 3.14122 -91.1881
rradius 72.5907
rwrist 20.1482
rhand -38.0894 -28.9645
rfingers 7.12502
rthumb -11.1255 661.35
lclavicle -2.5842e-015 -3.18055e-014
lhumerus -30.086 -10.5375 86.4795
lradius 67.7632
lwrist -19.6188
lhand -38.0107 -753.824
lfingers 7.12502
lthumb -11.0496 -4.13436
rfemur -18.7013 3.53704 8.39178
rtibia 47.3309
rfoot -25.0054 -17.3132
rtoes -14.9623
lfemur -12.1813 -1.83232 -14.2722
ltibia 39.6677
lfoot -32.6027 17.5056
ltoes -29.0321
1484
root -4.84625 16.0069 0.877064 -119.238 -86.5324 119.87
lowerback -3.63363 1.18092 -0.00829688
upperback 3.41009 1.67687 -3.00279
thorax 5.67016 0.873935 -2.97859
lowerneck -3.70937 -1.4576 -1.97972
upperneck 6.70525 -1.95404 1.44981
head 2.81572 -0.984893 0.737964
rclavicle 2.34566e-014 -1.39149e-014
rhumerus -34.9148 3.29544 -91.1845
rradius 72.3219
rwrist 20.2251
rhand -37.9539 -29.1481
rfingers 7.12502
rthumb -10.9948 661.16
lclavicle 2.34566e-014 -1.39149e-014
lhumerus -29.6664 -10.72 86.2468
lradius 67.6635
lwrist -19.8229
lhand -37.7263 -753.468
lfingers 7.12502
lthumb -10.7753 -3.76472
rfemur -18.6766 3.37987 8.29197
rtibia 47.2605
rfoot -24.8538 -17.1656
rtoes -15.6252
lfemur -12.1902 -1.92502 -14.3634
ltibia 39.7319
lfoot -32.6874 17.6591
ltoes -29.1501
1485
root -4.84024 16.0054 0.881913 -119.341 -86.4096 119.934
lowerback -3.80879 1.19771 -0.0799006
upperback 3.41845 1.70942 -3.06386
thorax 5.78121 0.888644 -2.99676
lowerneck -3.77513 -1.37045 -1.95248
upperneck 7.31248 -1.84561 1.37783
head 3.03071 -0.936613 0.713824
rclavicle -7.50412e-015 3.97569e-015
rhumerus -34.4647 3.44758 -91.1498
rradius 72.0698
rwrist 20.343
rhand -37.7555 -29.3332
rfingers 7.12502
rthumb -10.8034 660.965
lclavicle -7.50412e-015 3.97569e-015
lhumerus -29.2703 -10.9176 86.0483
lradius 67.5554
lwrist -19.9436
lhand -37.3721 -753.083
lfingers 7.12502
lthumb -10.4336 -3.36172
rfemur -18.6532 3.27971 8.11883
rtibia 47.218
rfoot -24.7483 -16.9988
rtoes -16.054
lfemur -12.1649 -2.00628 -14.5284
ltibia 39.7676
lfoot -32.7661 17.806
ltoes -29.2419
1486
root -4.83321 16.0031 0.884401 -119.543 -86.2351 120.061
lowerback -3.93243 1.22235 -0.26011
upperback 3.44041 1.75794 -3.1131
thorax 5.87404 0.906013 -2.94062
lowerneck -3.85299 -1.28949 -1.90535
upperneck 7.88368 -1.74321 1.27178
head 3.23716 -0.892288 0.674926
rclavicle 1.13307e-014 -1.39149e-014
rhumerus -34.0131 3.60699 -91.091
rradius 71.8349
rwrist 20.4636
rhand -37.4954 -29.4742
rfingers 7.12502
rthumb -10.5525 660.811
lclavicle 1.13307e-014 -1.39149e-014
lhumerus -28.8899 -11.1258 85.8851
lradius 67.4484
lwrist -19.9759
lhand -36.9679 -752.734
lfingers 7.12502
lthumb -10.0436 -2.99349
rfemur -18.6182 3.30047 7.92134
rtibia 47.1997
rfoot -24.698 -16.8597
rtoes -16.1998
lfemur -12.0918 -2.06164 -14.7247
ltibia 39.775
lfoot -32.8281 17.9234
ltoes -29.2867
1487
root -4.82474 16.0008 0.885373 -120.053 -86.0568 120.463
lowerback -3.98457 1.2493 -0.484875
upperback 3.46486 1.81022 -3.14164
thorax 5.92621 0.922479 -2.8384
lowerneck -3.91116 -1.21121 -1.85176
upperneck 8.39688 -1.64296 1.15406
head 3.42161 -0.849586 0.631015
rclavicle 5.66536e-015 -2.38542e-015
rhumerus -33.5754 3.78105 -91.0243
rradius 71.6227
rwrist 20.5319
rhand -37.2223 -29.568
rfingers 7.12502
rthumb -10.2891 660.704
lclavicle 5.66536e-015 -2.38542e-015
lhumerus -28.543 -11.3442 85.7567
lradius 67.3536
lwrist -19.9278
lhand -36.5593 -752.445
lfingers 7.12502
lthumb -9.6495 -2.68596
rfemur -18.5679 3.4358 7.75349
rtibia 47.1942
rfoot -24.6843 -16.7714
rtoes -16.1208
lfemur -11.9816 -2.0808 -14.8979
ltibia 39.7659
lfoot -32.8703 17.9959
ltoes -29.2844
1488
root -4.8155 15.9988 0.886254 -120.822 -85.9237 121.107
lowerback -3.98275 1.26882 -0.680815
upperback 3.48316 1.84859 -3.14679
thorax 5.94003 0.932702 -2.73005
lowerneck -3.89717 -1.1472 -1.78659
upperneck 8.80391 -1.56064 1.02129
head 3.55666 -0.816064 0.5795
rclavicle -9.24349e-015 6.75868e-015
rhumerus -33.1742 3.97569 -90.9639
rradius 71.4394
rwrist 20.5235
rhand -36.9824 -29.6085
rfingers 7.12502
rthumb -10.0577 660.652
lclavicle -9.24349e-015 6.75868e-015
lhumerus -28.2397 -11.5485 85.659
lradius 67.2712
lwrist -19.8478
lhand -36.1797 -752.238
lfingers 7.12502
lthumb -9.28319 -2.46234
rfemur -18.5016 3.61878 7.65202
rtibia 47.1872
rfoot -24.6731 -16.7301
rtoes -15.9586
lfemur -11.8597 -2.06346 -15.0062
ltibia 39.7579
lfoot -32.8923 18.0276
ltoes -29.2635
1489
root -4.80668 15.9973 0.888176 -121.707 -85.8679 121.871
lowerback -3.97454 1.27586 -0.791904
upperback 3.4959 1.86431 -3.13564
thorax 5.94531 0.935242 -2.65457
lowerneck -3.82952 -1.0901 -1.70693
upperneck 9.12612 -1.488 0.890031
head 3.65254 -0.786688 0.525555
rclavicle 6.70898e-015 7.55382e-015
rhumerus -32.8181 4.18128 -90.9214
rradius 71.2865
rwrist 20.4352
rhand -36.8018 -29.5889
rfingers 7.12502
rthumb -9.88345 660.663
lclavicle 6.70898e-015 7.55382e-015
lhumerus -27.9681 -11.7353 85.5781
lradius 67.1962
lwrist -19.7794
lhand -35.8591 -752.115
lfingers 7.12502
lthumb -8.97379 -2.32632
rfemur -18.422 3.78077 7.63241
rtibia 47.1681
rfoot -24.6324 -16.7403
rtoes -15.9093
lfemur -11.7551 -2.01087 -15.0287
ltibia 39.7654
lfoot -32.8919 18.0266
ltoes -29.2707
1490
root -4.79905 15.9964 0.891538 -122.541 -85.8936 122.609
lowerback -3.99215 1.27165 -0.798938
upperback 3.49512 1.8592 -3.12239
thorax 5.95364 0.932218 -2.63691
lowerneck -3.73045 -1.03738 -1.61251
upperneck 9.40704 -1.42425 0.783233
head 3.72863 -0.760187 0.476669
rclavicle 1.70955e-014 -3.93594e-014
rhumerus -32.5166 4.37543 -90.9044
rradius 71.1608
rwrist 20.297
rhand -36.6651 -29.5599
rfingers 7.12502
rthumb -9.75152 660.686
lclavicle 1.70955e-014 -3.93594e-014
lhumerus -27.7361 -11.9258 85.4989
lradius 67.1461
lwrist -19.7499
lhand -35.628 -752.01
lfingers 7.12502
lthumb -8.7508 -2.21107
rfemur -18.3398 3.88774 7.68561
rtibia 47.1339
rfoot -24.5647 -16.7909
rtoes -16.009
lfemur -11.6919 -1.9429 -14.9736
ltibia 39.7936
lfoot -32.8803 18.0009
ltoes -29.3056
1491
root -4.7931 15.9962 0.896032 -123.082 -85.9764 123.088
lowerback -4.06099 1.26077 -0.727129
upperback 3.48724 1.84224 -3.12119
thorax 5.98646 0.927205 -2.67646
lowerneck -3.63021 -0.995278 -1.50389
upperneck 9.66993 -1.37816 0.707309
head 3.79902 -0.740502 0.4346
rclavicle 2.24627e-014 -3.18055e-014
rhumerus -32.2479 4.54363 -90.9065
rradius 71.049
rwrist 20.1401
rhand -36.5618 -29.5725
rfingers 7.12502
rthumb -9.65185 660.669
lclavicle 2.24627e-014 -3.18055e-014
lhumerus -27.5371 -12.1307 85.4164
lradius 67.1329
lwrist -19.7701
lhand -35.4858 -751.864
lfingers 7.12502
lthumb -8.61364 -2.05968
rfemur -18.2627 3.93235 7.77511
rtibia 47.0886
rfoot -24.4896 -16.8605
rtoes -16.1837
lfemur -11.6754 -1.87985 -14.8789
ltibia 39.8376
lfoot -32.8698 17.9596
ltoes -29.3504
1492
root -4.78876 15.9968 0.900856 -123.158 -86.0822 123.129
lowerback -4.17743 1.24801 -0.623583
upperback 3.47938 1.82268 -3.138
thorax 6.04829 0.922784 -2.75228
lowerneck -3.55292 -0.963916 -1.38919
upperneck 9.92762 -1.34898 0.661005
head 3.87293 -0.727453 0.400332
rclavicle 3.47873e-015 9.54166e-015
rhumerus -31.9904 4.6777 -90.9155
rradius 70.9454
rwrist 20.0038
rhand -36.4832 -29.6319
rfingers 7.12502
rthumb -9.57608 660.606
lclavicle 3.47873e-015 9.54166e-015
lhumerus -27.364 -12.3418 85.3341
lradius 67.161
lwrist -19.8393
lhand -35.4061 -751.652
lfingers 7.12502
lthumb -8.53666 -1.84449
rfemur -18.1931 3.93304 7.86485
rtibia 47.0405
rfoot -24.4281 -16.9387
rtoes -16.3581
lfemur -11.693 -1.83193 -14.7851
ltibia 39.8865
lfoot -32.8655 17.9129
ltoes -29.3868
1493
root -4.78528 15.998 0.905127 -122.777 -86.1859 122.728
lowerback -4.30674 1.23407 -0.534988
upperback 3.47321 1.80306 -3.16667
thorax 6.11925 0.917938 -2.83208
lowerneck -3.51734 -0.934211 -1.28041
upperneck 10.1927 -1.32355 0.642928
head 3.95845 -0.714978 0.376059
rclavicle -8.79622e-015 -4.37326e-015
rhumerus -31.7393 4.77716 -90.9238
rradius 70.856
rwrist 19.9305
rhand -36.3981 -29.6963
rfingers 7.12502
rthumb -9.49394 660.538
lclavicle -8.79622e-015 -4.37326e-015
lhumerus -27.2174 -12.5328 85.2553
lradius 67.2341
lwrist -19.9578
lhand -35.3368 -751.384
lfingers 7.12502
lthumb -8.46982 -1.57405
rfemur -18.129 3.93245 7.93964
rtibia 46.9975
rfoot -24.4045 -17.0191
rtoes -16.4147
lfemur -11.7253 -1.8084 -14.7139
ltibia 39.9286
lfoot -32.867 17.8681
ltoes -29.4077
1494
root -4.78192 15.9994 0.908283 -121.959 -86.2663 121.882
lowerback -4.4258 1.2164 -0.504023
upperback 3.48346 1.78204 -3.1975
thorax 6.19979 0.909846 -2.88218
lowerneck -3.54053 -0.897184 -1.18575
upperneck 10.4606 -1.28809 0.644945
head 4.05729 -0.696692 0.361162
rclavicle -1.29707e-014 -1.07344e-014
rhumerus -31.4768 4.86317 -90.9282
rradius 70.7795
rwrist 19.9013
rhand -36.3295 -29.6792
rfingers 7.12502
rthumb -9.42778 660.552
lclavicle -1.29707e-014 -1.07344e-014
lhumerus -27.0686 -12.6886 85.1821
lradius 67.3339
lwrist -20.0972
lhand -35.2271 -751.109
lfingers 7.12502
lthumb -8.36391 -1.29427
rfemur -18.0573 3.97135 7.98713
rtibia 46.9641
rfoot -24.4336 -17.1018
rtoes -16.2585
lfemur -11.7482 -1.80642 -14.6805
ltibia 39.9576
lfoot -32.8675 17.8171
ltoes -29.3855
